<mxfile host="app.diagrams.net" modified="2021-12-13T19:23:40.190Z" agent="5.0 (Windows NT 10.0; Win64; x64) AppleWebKit/537.36 (KHTML, like Gecko) Chrome/96.0.4664.93 Safari/537.36" etag="gyDQ3tEVBwpTRNvSI1Eu" version="15.9.5" type="github">
  <diagram id="R2lEEEUBdFMjLlhIrx00" name="Page-1">
    <mxGraphModel dx="2462" dy="899" grid="1" gridSize="10" guides="1" tooltips="1" connect="1" arrows="1" fold="1" page="1" pageScale="1" pageWidth="850" pageHeight="1100" math="0" shadow="0" extFonts="Permanent Marker^https://fonts.googleapis.com/css?family=Permanent+Marker">
      <root>
        <mxCell id="0" />
        <mxCell id="1" parent="0" />
        <mxCell id="QF39eqOGqN_0U-94D1bC-55" value="1" style="edgeStyle=orthogonalEdgeStyle;rounded=0;orthogonalLoop=1;jettySize=auto;html=1;entryX=0;entryY=0.5;entryDx=0;entryDy=0;" edge="1" parent="1" source="QF39eqOGqN_0U-94D1bC-11" target="QF39eqOGqN_0U-94D1bC-54">
          <mxGeometry relative="1" as="geometry" />
        </mxCell>
        <mxCell id="QF39eqOGqN_0U-94D1bC-11" value="Department" style="rounded=0;whiteSpace=wrap;html=1;" vertex="1" parent="1">
          <mxGeometry x="425" y="150" width="120" height="60" as="geometry" />
        </mxCell>
        <mxCell id="QF39eqOGqN_0U-94D1bC-50" value="M" style="edgeStyle=orthogonalEdgeStyle;rounded=0;orthogonalLoop=1;jettySize=auto;html=1;" edge="1" parent="1" source="QF39eqOGqN_0U-94D1bC-12" target="QF39eqOGqN_0U-94D1bC-49">
          <mxGeometry relative="1" as="geometry" />
        </mxCell>
        <mxCell id="QF39eqOGqN_0U-94D1bC-61" value="" style="edgeStyle=orthogonalEdgeStyle;rounded=0;orthogonalLoop=1;jettySize=auto;html=1;" edge="1" parent="1" source="QF39eqOGqN_0U-94D1bC-12" target="QF39eqOGqN_0U-94D1bC-19">
          <mxGeometry relative="1" as="geometry" />
        </mxCell>
        <mxCell id="QF39eqOGqN_0U-94D1bC-63" value="M" style="edgeStyle=orthogonalEdgeStyle;rounded=0;orthogonalLoop=1;jettySize=auto;html=1;" edge="1" parent="1" source="QF39eqOGqN_0U-94D1bC-12" target="QF39eqOGqN_0U-94D1bC-62">
          <mxGeometry relative="1" as="geometry">
            <Array as="points">
              <mxPoint x="200" y="370" />
              <mxPoint x="210" y="370" />
            </Array>
          </mxGeometry>
        </mxCell>
        <mxCell id="QF39eqOGqN_0U-94D1bC-12" value="Course" style="rounded=0;whiteSpace=wrap;html=1;" vertex="1" parent="1">
          <mxGeometry x="115" y="305" width="120" height="60" as="geometry" />
        </mxCell>
        <mxCell id="QF39eqOGqN_0U-94D1bC-13" value="Instructor" style="rounded=0;whiteSpace=wrap;html=1;" vertex="1" parent="1">
          <mxGeometry x="698" y="305" width="120" height="60" as="geometry" />
        </mxCell>
        <mxCell id="QF39eqOGqN_0U-94D1bC-59" value="M" style="edgeStyle=orthogonalEdgeStyle;rounded=0;orthogonalLoop=1;jettySize=auto;html=1;entryX=0;entryY=0.5;entryDx=0;entryDy=0;" edge="1" parent="1" source="QF39eqOGqN_0U-94D1bC-14" target="QF39eqOGqN_0U-94D1bC-57">
          <mxGeometry relative="1" as="geometry" />
        </mxCell>
        <mxCell id="QF39eqOGqN_0U-94D1bC-79" value="" style="edgeStyle=orthogonalEdgeStyle;rounded=0;orthogonalLoop=1;jettySize=auto;html=1;" edge="1" parent="1" source="QF39eqOGqN_0U-94D1bC-14" target="QF39eqOGqN_0U-94D1bC-78">
          <mxGeometry relative="1" as="geometry">
            <Array as="points">
              <mxPoint x="260" y="850" />
            </Array>
          </mxGeometry>
        </mxCell>
        <mxCell id="QF39eqOGqN_0U-94D1bC-14" value="Student" style="rounded=0;whiteSpace=wrap;html=1;" vertex="1" parent="1">
          <mxGeometry x="200" y="550" width="120" height="60" as="geometry" />
        </mxCell>
        <mxCell id="QF39eqOGqN_0U-94D1bC-45" value="" style="edgeStyle=orthogonalEdgeStyle;rounded=0;orthogonalLoop=1;jettySize=auto;html=1;" edge="1" parent="1" source="QF39eqOGqN_0U-94D1bC-15" target="QF39eqOGqN_0U-94D1bC-11">
          <mxGeometry relative="1" as="geometry" />
        </mxCell>
        <mxCell id="QF39eqOGqN_0U-94D1bC-15" value="Department_Name" style="ellipse;whiteSpace=wrap;html=1;" vertex="1" parent="1">
          <mxGeometry x="315" y="20" width="110" height="70" as="geometry" />
        </mxCell>
        <mxCell id="QF39eqOGqN_0U-94D1bC-44" style="edgeStyle=orthogonalEdgeStyle;rounded=0;orthogonalLoop=1;jettySize=auto;html=1;entryX=0.75;entryY=0;entryDx=0;entryDy=0;" edge="1" parent="1" source="QF39eqOGqN_0U-94D1bC-16" target="QF39eqOGqN_0U-94D1bC-11">
          <mxGeometry relative="1" as="geometry" />
        </mxCell>
        <mxCell id="QF39eqOGqN_0U-94D1bC-16" value="DEPARTMENT_LOCATION" style="ellipse;whiteSpace=wrap;html=1;" vertex="1" parent="1">
          <mxGeometry x="485" y="10" width="170" height="70" as="geometry" />
        </mxCell>
        <mxCell id="QF39eqOGqN_0U-94D1bC-46" style="edgeStyle=orthogonalEdgeStyle;rounded=0;orthogonalLoop=1;jettySize=auto;html=1;entryX=0;entryY=0.5;entryDx=0;entryDy=0;" edge="1" parent="1" source="QF39eqOGqN_0U-94D1bC-17" target="QF39eqOGqN_0U-94D1bC-12">
          <mxGeometry relative="1" as="geometry" />
        </mxCell>
        <mxCell id="QF39eqOGqN_0U-94D1bC-17" value="Course_ID" style="ellipse;whiteSpace=wrap;html=1;" vertex="1" parent="1">
          <mxGeometry y="190" width="120" height="80" as="geometry" />
        </mxCell>
        <mxCell id="QF39eqOGqN_0U-94D1bC-47" value="" style="edgeStyle=orthogonalEdgeStyle;rounded=0;orthogonalLoop=1;jettySize=auto;html=1;" edge="1" parent="1" source="QF39eqOGqN_0U-94D1bC-18" target="QF39eqOGqN_0U-94D1bC-12">
          <mxGeometry relative="1" as="geometry">
            <Array as="points">
              <mxPoint x="100" y="360" />
              <mxPoint x="100" y="360" />
            </Array>
          </mxGeometry>
        </mxCell>
        <mxCell id="QF39eqOGqN_0U-94D1bC-18" value="Course_NAME" style="ellipse;whiteSpace=wrap;html=1;" vertex="1" parent="1">
          <mxGeometry x="-130" y="320" width="120" height="80" as="geometry" />
        </mxCell>
        <mxCell id="QF39eqOGqN_0U-94D1bC-48" value="" style="edgeStyle=orthogonalEdgeStyle;rounded=0;orthogonalLoop=1;jettySize=auto;html=1;" edge="1" parent="1" source="QF39eqOGqN_0U-94D1bC-19" target="QF39eqOGqN_0U-94D1bC-12">
          <mxGeometry relative="1" as="geometry" />
        </mxCell>
        <mxCell id="QF39eqOGqN_0U-94D1bC-19" value="Course_Duration" style="ellipse;whiteSpace=wrap;html=1;" vertex="1" parent="1">
          <mxGeometry x="30" y="410" width="120" height="80" as="geometry" />
        </mxCell>
        <mxCell id="QF39eqOGqN_0U-94D1bC-43" style="edgeStyle=orthogonalEdgeStyle;rounded=0;orthogonalLoop=1;jettySize=auto;html=1;" edge="1" parent="1" source="QF39eqOGqN_0U-94D1bC-21" target="QF39eqOGqN_0U-94D1bC-13">
          <mxGeometry relative="1" as="geometry" />
        </mxCell>
        <mxCell id="QF39eqOGqN_0U-94D1bC-21" value="Instrctor_ID" style="ellipse;whiteSpace=wrap;html=1;" vertex="1" parent="1">
          <mxGeometry x="1030" y="250" width="130" height="70" as="geometry" />
        </mxCell>
        <mxCell id="QF39eqOGqN_0U-94D1bC-42" style="edgeStyle=orthogonalEdgeStyle;rounded=0;orthogonalLoop=1;jettySize=auto;html=1;" edge="1" parent="1" source="QF39eqOGqN_0U-94D1bC-22" target="QF39eqOGqN_0U-94D1bC-13">
          <mxGeometry relative="1" as="geometry">
            <Array as="points">
              <mxPoint x="810" y="380" />
            </Array>
          </mxGeometry>
        </mxCell>
        <mxCell id="QF39eqOGqN_0U-94D1bC-22" value="MOBILE_NUMBER" style="ellipse;whiteSpace=wrap;html=1;" vertex="1" parent="1">
          <mxGeometry x="1040" y="340" width="120" height="80" as="geometry" />
        </mxCell>
        <mxCell id="QF39eqOGqN_0U-94D1bC-38" style="edgeStyle=orthogonalEdgeStyle;rounded=0;orthogonalLoop=1;jettySize=auto;html=1;exitX=0;exitY=0;exitDx=0;exitDy=0;entryX=1;entryY=0.5;entryDx=0;entryDy=0;" edge="1" parent="1" source="QF39eqOGqN_0U-94D1bC-25" target="QF39eqOGqN_0U-94D1bC-14">
          <mxGeometry relative="1" as="geometry" />
        </mxCell>
        <mxCell id="QF39eqOGqN_0U-94D1bC-25" value="Student_Address" style="ellipse;whiteSpace=wrap;html=1;" vertex="1" parent="1">
          <mxGeometry x="410" y="610" width="120" height="80" as="geometry" />
        </mxCell>
        <mxCell id="QF39eqOGqN_0U-94D1bC-34" style="edgeStyle=orthogonalEdgeStyle;rounded=0;orthogonalLoop=1;jettySize=auto;html=1;" edge="1" parent="1" source="QF39eqOGqN_0U-94D1bC-26" target="QF39eqOGqN_0U-94D1bC-14">
          <mxGeometry relative="1" as="geometry" />
        </mxCell>
        <mxCell id="QF39eqOGqN_0U-94D1bC-26" value="Student_ID" style="ellipse;whiteSpace=wrap;html=1;" vertex="1" parent="1">
          <mxGeometry x="-30" y="580" width="120" height="80" as="geometry" />
        </mxCell>
        <mxCell id="QF39eqOGqN_0U-94D1bC-37" style="edgeStyle=orthogonalEdgeStyle;rounded=0;orthogonalLoop=1;jettySize=auto;html=1;exitX=0;exitY=0;exitDx=0;exitDy=0;entryX=0.641;entryY=0.991;entryDx=0;entryDy=0;entryPerimeter=0;" edge="1" parent="1" source="QF39eqOGqN_0U-94D1bC-27" target="QF39eqOGqN_0U-94D1bC-14">
          <mxGeometry relative="1" as="geometry" />
        </mxCell>
        <mxCell id="QF39eqOGqN_0U-94D1bC-27" value="Mobile_Number" style="ellipse;whiteSpace=wrap;html=1;" vertex="1" parent="1">
          <mxGeometry x="322.5" y="720" width="95" height="60" as="geometry" />
        </mxCell>
        <mxCell id="QF39eqOGqN_0U-94D1bC-67" value="" style="edgeStyle=orthogonalEdgeStyle;rounded=0;orthogonalLoop=1;jettySize=auto;html=1;" edge="1" parent="1" source="QF39eqOGqN_0U-94D1bC-28" target="QF39eqOGqN_0U-94D1bC-66">
          <mxGeometry relative="1" as="geometry">
            <Array as="points">
              <mxPoint x="100" y="860" />
            </Array>
          </mxGeometry>
        </mxCell>
        <mxCell id="QF39eqOGqN_0U-94D1bC-28" value="First_Name" style="ellipse;whiteSpace=wrap;html=1;" vertex="1" parent="1">
          <mxGeometry x="-60" y="830" width="110" height="60" as="geometry" />
        </mxCell>
        <mxCell id="QF39eqOGqN_0U-94D1bC-68" value="" style="edgeStyle=orthogonalEdgeStyle;rounded=0;orthogonalLoop=1;jettySize=auto;html=1;" edge="1" parent="1" source="QF39eqOGqN_0U-94D1bC-29" target="QF39eqOGqN_0U-94D1bC-66">
          <mxGeometry relative="1" as="geometry">
            <Array as="points">
              <mxPoint x="230" y="805" />
              <mxPoint x="200" y="805" />
            </Array>
          </mxGeometry>
        </mxCell>
        <mxCell id="QF39eqOGqN_0U-94D1bC-29" value="Last_Name" style="ellipse;whiteSpace=wrap;html=1;" vertex="1" parent="1">
          <mxGeometry x="160" y="900" width="120" height="50" as="geometry" />
        </mxCell>
        <mxCell id="QF39eqOGqN_0U-94D1bC-31" value="M" style="edgeStyle=orthogonalEdgeStyle;rounded=0;orthogonalLoop=1;jettySize=auto;html=1;" edge="1" parent="1" source="QF39eqOGqN_0U-94D1bC-30" target="QF39eqOGqN_0U-94D1bC-12">
          <mxGeometry relative="1" as="geometry" />
        </mxCell>
        <mxCell id="QF39eqOGqN_0U-94D1bC-32" value="1" style="edgeStyle=orthogonalEdgeStyle;rounded=0;orthogonalLoop=1;jettySize=auto;html=1;" edge="1" parent="1" source="QF39eqOGqN_0U-94D1bC-30" target="QF39eqOGqN_0U-94D1bC-11">
          <mxGeometry relative="1" as="geometry" />
        </mxCell>
        <mxCell id="QF39eqOGqN_0U-94D1bC-30" value="OFFERS" style="rhombus;whiteSpace=wrap;html=1;" vertex="1" parent="1">
          <mxGeometry x="115" y="140" width="110" height="80" as="geometry" />
        </mxCell>
        <mxCell id="QF39eqOGqN_0U-94D1bC-51" value="1" style="edgeStyle=orthogonalEdgeStyle;rounded=0;orthogonalLoop=1;jettySize=auto;html=1;entryX=0;entryY=0.5;entryDx=0;entryDy=0;" edge="1" parent="1" source="QF39eqOGqN_0U-94D1bC-49" target="QF39eqOGqN_0U-94D1bC-13">
          <mxGeometry relative="1" as="geometry" />
        </mxCell>
        <mxCell id="QF39eqOGqN_0U-94D1bC-49" value="TOUGHT&lt;br&gt;BY" style="rhombus;whiteSpace=wrap;html=1;rounded=0;" vertex="1" parent="1">
          <mxGeometry x="410" y="290" width="100" height="90" as="geometry" />
        </mxCell>
        <mxCell id="QF39eqOGqN_0U-94D1bC-56" value="M" style="edgeStyle=orthogonalEdgeStyle;rounded=0;orthogonalLoop=1;jettySize=auto;html=1;exitX=1;exitY=0.5;exitDx=0;exitDy=0;" edge="1" parent="1" source="QF39eqOGqN_0U-94D1bC-54" target="QF39eqOGqN_0U-94D1bC-13">
          <mxGeometry relative="1" as="geometry" />
        </mxCell>
        <mxCell id="QF39eqOGqN_0U-94D1bC-54" value="HAS" style="rhombus;whiteSpace=wrap;html=1;" vertex="1" parent="1">
          <mxGeometry x="800" y="140" width="80" height="80" as="geometry" />
        </mxCell>
        <mxCell id="QF39eqOGqN_0U-94D1bC-60" value="1" style="edgeStyle=orthogonalEdgeStyle;rounded=0;orthogonalLoop=1;jettySize=auto;html=1;" edge="1" parent="1" source="QF39eqOGqN_0U-94D1bC-57" target="QF39eqOGqN_0U-94D1bC-13">
          <mxGeometry relative="1" as="geometry">
            <mxPoint x="710" y="370" as="targetPoint" />
            <Array as="points">
              <mxPoint x="710" y="485" />
            </Array>
          </mxGeometry>
        </mxCell>
        <mxCell id="QF39eqOGqN_0U-94D1bC-57" value="ADVISOR" style="rhombus;whiteSpace=wrap;html=1;" vertex="1" parent="1">
          <mxGeometry x="510" y="445" width="80" height="80" as="geometry" />
        </mxCell>
        <mxCell id="QF39eqOGqN_0U-94D1bC-64" value="N" style="edgeStyle=orthogonalEdgeStyle;rounded=0;orthogonalLoop=1;jettySize=auto;html=1;" edge="1" parent="1" source="QF39eqOGqN_0U-94D1bC-62" target="QF39eqOGqN_0U-94D1bC-14">
          <mxGeometry relative="1" as="geometry" />
        </mxCell>
        <mxCell id="QF39eqOGqN_0U-94D1bC-62" value="ENROLLED BY" style="rhombus;whiteSpace=wrap;html=1;rounded=0;" vertex="1" parent="1">
          <mxGeometry x="170" y="420" width="80" height="80" as="geometry" />
        </mxCell>
        <mxCell id="QF39eqOGqN_0U-94D1bC-75" style="edgeStyle=orthogonalEdgeStyle;rounded=0;orthogonalLoop=1;jettySize=auto;html=1;" edge="1" parent="1" source="QF39eqOGqN_0U-94D1bC-65" target="QF39eqOGqN_0U-94D1bC-25">
          <mxGeometry relative="1" as="geometry" />
        </mxCell>
        <mxCell id="QF39eqOGqN_0U-94D1bC-65" value="CITY" style="ellipse;whiteSpace=wrap;html=1;" vertex="1" parent="1">
          <mxGeometry x="590" y="660" width="90" height="50" as="geometry" />
        </mxCell>
        <mxCell id="QF39eqOGqN_0U-94D1bC-69" style="edgeStyle=orthogonalEdgeStyle;rounded=0;orthogonalLoop=1;jettySize=auto;html=1;entryX=0.33;entryY=1.01;entryDx=0;entryDy=0;entryPerimeter=0;" edge="1" parent="1" source="QF39eqOGqN_0U-94D1bC-66" target="QF39eqOGqN_0U-94D1bC-14">
          <mxGeometry relative="1" as="geometry" />
        </mxCell>
        <mxCell id="QF39eqOGqN_0U-94D1bC-66" value="NAME" style="ellipse;whiteSpace=wrap;html=1;" vertex="1" parent="1">
          <mxGeometry x="90" y="710" width="120" height="60" as="geometry" />
        </mxCell>
        <mxCell id="QF39eqOGqN_0U-94D1bC-71" style="edgeStyle=orthogonalEdgeStyle;rounded=0;orthogonalLoop=1;jettySize=auto;html=1;entryX=0.5;entryY=1;entryDx=0;entryDy=0;" edge="1" parent="1" source="QF39eqOGqN_0U-94D1bC-70" target="QF39eqOGqN_0U-94D1bC-66">
          <mxGeometry relative="1" as="geometry" />
        </mxCell>
        <mxCell id="QF39eqOGqN_0U-94D1bC-70" value="Middle_Name" style="ellipse;whiteSpace=wrap;html=1;" vertex="1" parent="1">
          <mxGeometry x="80" y="860" width="120" height="50" as="geometry" />
        </mxCell>
        <mxCell id="QF39eqOGqN_0U-94D1bC-76" style="edgeStyle=orthogonalEdgeStyle;rounded=0;orthogonalLoop=1;jettySize=auto;html=1;" edge="1" parent="1" source="QF39eqOGqN_0U-94D1bC-72" target="QF39eqOGqN_0U-94D1bC-25">
          <mxGeometry relative="1" as="geometry" />
        </mxCell>
        <mxCell id="QF39eqOGqN_0U-94D1bC-72" value="ZIP_CODE" style="ellipse;whiteSpace=wrap;html=1;" vertex="1" parent="1">
          <mxGeometry x="520" y="715" width="90" height="50" as="geometry" />
        </mxCell>
        <mxCell id="QF39eqOGqN_0U-94D1bC-74" style="edgeStyle=orthogonalEdgeStyle;rounded=0;orthogonalLoop=1;jettySize=auto;html=1;" edge="1" parent="1" source="QF39eqOGqN_0U-94D1bC-73" target="QF39eqOGqN_0U-94D1bC-25">
          <mxGeometry relative="1" as="geometry" />
        </mxCell>
        <mxCell id="QF39eqOGqN_0U-94D1bC-73" value="STATE" style="ellipse;whiteSpace=wrap;html=1;" vertex="1" parent="1">
          <mxGeometry x="590" y="595" width="80" height="50" as="geometry" />
        </mxCell>
        <mxCell id="QF39eqOGqN_0U-94D1bC-81" value="" style="edgeStyle=orthogonalEdgeStyle;rounded=0;orthogonalLoop=1;jettySize=auto;html=1;" edge="1" parent="1" source="QF39eqOGqN_0U-94D1bC-78" target="QF39eqOGqN_0U-94D1bC-80">
          <mxGeometry relative="1" as="geometry" />
        </mxCell>
        <mxCell id="QF39eqOGqN_0U-94D1bC-78" value="AGE" style="ellipse;whiteSpace=wrap;html=1;rounded=0;" vertex="1" parent="1">
          <mxGeometry x="365" y="820" width="120" height="60" as="geometry" />
        </mxCell>
        <mxCell id="QF39eqOGqN_0U-94D1bC-80" value="DOB" style="ellipse;whiteSpace=wrap;html=1;rounded=0;" vertex="1" parent="1">
          <mxGeometry x="470" y="920" width="120" height="60" as="geometry" />
        </mxCell>
        <mxCell id="QF39eqOGqN_0U-94D1bC-84" value="" style="edgeStyle=orthogonalEdgeStyle;rounded=0;orthogonalLoop=1;jettySize=auto;html=1;" edge="1" parent="1" source="QF39eqOGqN_0U-94D1bC-85" target="QF39eqOGqN_0U-94D1bC-88">
          <mxGeometry relative="1" as="geometry">
            <Array as="points">
              <mxPoint x="880" y="580" />
              <mxPoint x="900" y="580" />
            </Array>
          </mxGeometry>
        </mxCell>
        <mxCell id="QF39eqOGqN_0U-94D1bC-85" value="First_Name" style="ellipse;whiteSpace=wrap;html=1;" vertex="1" parent="1">
          <mxGeometry x="790" y="560" width="110" height="60" as="geometry" />
        </mxCell>
        <mxCell id="QF39eqOGqN_0U-94D1bC-86" value="" style="edgeStyle=orthogonalEdgeStyle;rounded=0;orthogonalLoop=1;jettySize=auto;html=1;" edge="1" parent="1" source="QF39eqOGqN_0U-94D1bC-87" target="QF39eqOGqN_0U-94D1bC-88">
          <mxGeometry relative="1" as="geometry">
            <Array as="points">
              <mxPoint x="1020" y="550" />
              <mxPoint x="1020" y="480" />
            </Array>
          </mxGeometry>
        </mxCell>
        <mxCell id="QF39eqOGqN_0U-94D1bC-87" value="Last_Name" style="ellipse;whiteSpace=wrap;html=1;" vertex="1" parent="1">
          <mxGeometry x="1030" y="525" width="120" height="50" as="geometry" />
        </mxCell>
        <mxCell id="QF39eqOGqN_0U-94D1bC-91" style="edgeStyle=orthogonalEdgeStyle;rounded=0;orthogonalLoop=1;jettySize=auto;html=1;entryX=0.5;entryY=1;entryDx=0;entryDy=0;" edge="1" parent="1" source="QF39eqOGqN_0U-94D1bC-88" target="QF39eqOGqN_0U-94D1bC-13">
          <mxGeometry relative="1" as="geometry" />
        </mxCell>
        <mxCell id="QF39eqOGqN_0U-94D1bC-88" value="INSTRUCTOR_NAME" style="ellipse;whiteSpace=wrap;html=1;" vertex="1" parent="1">
          <mxGeometry x="870" y="430" width="120" height="60" as="geometry" />
        </mxCell>
        <mxCell id="QF39eqOGqN_0U-94D1bC-89" style="edgeStyle=orthogonalEdgeStyle;rounded=0;orthogonalLoop=1;jettySize=auto;html=1;entryX=0.5;entryY=1;entryDx=0;entryDy=0;" edge="1" parent="1" source="QF39eqOGqN_0U-94D1bC-90" target="QF39eqOGqN_0U-94D1bC-88">
          <mxGeometry relative="1" as="geometry">
            <Array as="points">
              <mxPoint x="980" y="535" />
              <mxPoint x="930" y="535" />
            </Array>
          </mxGeometry>
        </mxCell>
        <mxCell id="QF39eqOGqN_0U-94D1bC-90" value="Middle_Name" style="ellipse;whiteSpace=wrap;html=1;" vertex="1" parent="1">
          <mxGeometry x="920" y="580" width="120" height="50" as="geometry" />
        </mxCell>
      </root>
    </mxGraphModel>
  </diagram>
</mxfile>
